<svg width="81" height="33" viewBox="0 0 81 33" fill="none" xmlns="http://www.w3.org/2000/svg">
<path d="M14.2983 24.6487L13.6133 22.0799H7.84774L7.16273 24.6487H1.02616L7.39107 4.66912H14.0699L20.4348 24.6487H14.2983ZM9.07505 17.5131H12.3859L10.7305 11.3765L9.07505 17.5131ZM48.593 4.66912L41.5146 16.5712V24.6487H38.8602V16.5427L31.8102 4.66912H34.7786L40.2016 14.031L45.6247 4.66912H48.593ZM61.514 24.6487L59.8871 20.1675H50.8963L49.2694 24.6487H46.4437L53.8932 4.66912H56.8901L64.3396 24.6487H61.514ZM51.8096 17.6844H58.9737L55.3774 7.8373L51.8096 17.6844ZM72.6175 25.0197C70.7528 25.0197 69.1544 24.5821 67.8225 23.7068C66.5095 22.8315 65.5866 21.6327 65.0539 20.1104L67.3372 18.7975C68.1174 21.2141 69.8965 22.4224 72.6746 22.4224C74.0446 22.4224 75.0912 22.1465 75.8143 21.5946C76.5373 21.0238 76.8989 20.2722 76.8989 19.3398C76.8989 18.3884 76.5373 17.6748 75.8143 17.1991C75.0912 16.7234 73.8829 16.2192 72.1894 15.6864C71.3522 15.42 70.7147 15.2107 70.2771 15.0585C69.8394 14.8872 69.2876 14.6399 68.6216 14.3164C67.9747 13.9739 67.4895 13.6314 67.166 13.2889C66.8425 12.9273 66.5476 12.4611 66.2812 11.8903C66.0338 11.3195 65.9101 10.6725 65.9101 9.94943C65.9101 8.21787 66.519 6.84784 67.7368 5.83935C68.9546 4.81183 70.4388 4.29807 72.1894 4.29807C73.7687 4.29807 75.1388 4.69766 76.2995 5.49685C77.4792 6.29603 78.364 7.35209 78.9539 8.66503L76.7276 9.94943C75.8713 7.89439 74.3586 6.86687 72.1894 6.86687C71.1048 6.86687 70.2295 7.13326 69.5635 7.66605C68.8975 8.19884 68.5645 8.92191 68.5645 9.83526C68.5645 10.7106 68.8785 11.3765 69.5064 11.8332C70.1344 12.2899 71.219 12.7656 72.7602 13.2603C73.3121 13.4316 73.7021 13.5553 73.9305 13.6314C74.1588 13.7075 74.5108 13.8407 74.9865 14.031C75.4813 14.2212 75.8428 14.3735 76.0711 14.4876C76.2995 14.6018 76.6039 14.7635 76.9845 14.9729C77.3841 15.1822 77.679 15.382 77.8693 15.5722C78.0596 15.7625 78.2784 16.0004 78.5258 16.2858C78.7922 16.5522 78.9824 16.8281 79.0966 17.1135C79.2108 17.3989 79.3059 17.7319 79.382 18.1125C79.4772 18.474 79.5247 18.8641 79.5247 19.2827C79.5247 21.0333 78.8873 22.4319 77.6124 23.4784C76.3375 24.5059 74.6726 25.0197 72.6175 25.0197Z" fill="#FD8D2B"/>
<line x1="26.5202" y1="12.6127" x2="24.4376" y2="19.4554" stroke="#2554DA" stroke-width="1.8142" stroke-linecap="round"/>
</svg>
